<svg width="25" height="29" viewBox="0 0 25 29" fill="none" xmlns="http://www.w3.org/2000/svg">
<path fill-rule="evenodd" clip-rule="evenodd" d="M18.3613 4.16369L19.3601 5.15952C19.3601 5.15952 21.5446 5.32262 21.6476 5.33095C21.7091 5.33621 21.767 5.36195 21.8121 5.40404C21.8572 5.44613 21.8869 5.50213 21.8964 5.5631C21.9161 5.70714 25 26.6619 25 26.6619L17.4327 28.3065L18.3613 4.16369ZM17.2006 3.36964C17.1523 3.37587 17.1045 3.38582 17.0577 3.3994L16.2077 3.6625C15.7006 2.19643 14.806 0.849405 13.2327 0.849405C13.1893 0.849405 13.1435 0.850595 13.0994 0.853571C12.6512 0.258929 12.097 0 11.6185 0C7.95179 0 6.1994 4.60714 5.6506 6.94762C4.2256 7.39107 3.21369 7.70595 3.08512 7.74702C2.28869 7.99821 2.26369 8.02321 2.15952 8.77619C2.08095 9.34643 0 25.5185 0 25.5185L16.2143 28.5714L16.2315 28.5679L17.2006 3.36964ZM12.9792 4.50714L12.9786 4.66726L10.144 5.54881C10.6899 3.43333 11.7125 2.41071 12.6071 2.025C12.8315 2.59286 12.9792 3.40774 12.9792 4.50714ZM11.5167 0.988095C11.6762 0.988095 11.8351 1.04286 11.9881 1.14821C10.8125 1.70357 9.55357 3.10357 9.02143 5.89821L6.78155 6.59583C7.40417 4.46369 8.88333 0.98869 11.5167 0.98869V0.988095ZM12.1488 13.4482C12.1488 13.4482 11.2 12.9393 10.0369 12.9393C8.33095 12.9393 8.24524 14.0149 8.24524 14.2857C8.24524 15.7655 12.081 16.3321 12.081 19.7964C12.081 22.5214 10.3607 24.2768 8.04107 24.2768C5.25774 24.2768 3.83452 22.5357 3.83452 22.5357L4.57976 20.0613C4.57976 20.0613 6.04345 21.3238 7.27798 21.3238C8.08393 21.3238 8.4125 20.6857 8.4125 20.2196C8.4125 18.2899 5.26488 18.2036 5.26488 15.0327C5.26488 12.3655 7.17083 9.78274 11.0179 9.78274C12.5 9.78274 13.2321 10.2101 13.2321 10.2101L12.1488 13.4482ZM13.9399 4.36786L13.9405 4.07024C13.9405 3.15952 13.8143 2.42619 13.6131 1.84464C14.4238 1.94643 14.9643 2.8744 15.3113 3.94107L13.9399 4.36786Z" fill="#C8F542"/>
</svg>
